<svg xmlns="http://www.w3.org/2000/svg" viewBox="0 0 1140 810" width="1140" height="810">
<rect width="1140" height="810" fill="#FFFFFF"/>
<rect x="360.0" y="30.0" width="240" height="56" rx="28.0" ry="28.0" fill="#FFFFFF" stroke="#000000" stroke-width="1.6"/>
<text x="480" y="47.5" font-family="Arial, Helvetica, sans-serif" font-size="15" fill="#000000" text-anchor="middle" dominant-baseline="central">Mulai</text>
<text x="480" y="68.5" font-family="Arial, Helvetica, sans-serif" font-size="15" fill="#000000" text-anchor="middle" dominant-baseline="central">(gunicorn atau run.py)</text>
<polygon points="270.0,114.0 690.0,114.0 690.0,156.0 270.0,156.0" fill="#FFFFFF" stroke="#000000" stroke-width="1.6" stroke-linejoin="miter"/>
<text x="480" y="135.0" font-family="Arial, Helvetica, sans-serif" font-size="15" fill="#000000" text-anchor="middle" dominant-baseline="central">Menjalankan application factory create_app()</text>
<polygon points="245.0,184.0 715.0,184.0 715.0,240.0 245.0,240.0" fill="#FFFFFF" stroke="#000000" stroke-width="1.6" stroke-linejoin="miter"/>
<text x="480" y="201.5" font-family="Arial, Helvetica, sans-serif" font-size="15" fill="#000000" text-anchor="middle" dominant-baseline="central">Membaca berkas .env dan memilih kelas konfigurasi</text>
<text x="480" y="222.5" font-family="Arial, Helvetica, sans-serif" font-size="15" fill="#000000" text-anchor="middle" dominant-baseline="central">Development atau Production</text>
<polygon points="275.0,268.0 685.0,268.0 685.0,324.0 275.0,324.0" fill="#FFFFFF" stroke="#000000" stroke-width="1.6" stroke-linejoin="miter"/>
<text x="480" y="285.5" font-family="Arial, Helvetica, sans-serif" font-size="15" fill="#000000" text-anchor="middle" dominant-baseline="central">Mendaftarkan blueprint route:</text>
<text x="480" y="306.5" font-family="Arial, Helvetica, sans-serif" font-size="15" fill="#000000" text-anchor="middle" dominant-baseline="central">GET /, GET /favicon.ico, dan POST /predict</text>
<polygon points="480,352.0 680.0,396.0 480,440.0 280.0,396.0" fill="#FFFFFF" stroke="#000000" stroke-width="1.6" stroke-linejoin="miter"/>
<text x="480" y="385.5" font-family="Arial, Helvetica, sans-serif" font-size="15" fill="#000000" text-anchor="middle" dominant-baseline="central">Produksi dan SECRET_KEY</text>
<text x="480" y="406.5" font-family="Arial, Helvetica, sans-serif" font-size="15" fill="#000000" text-anchor="middle" dominant-baseline="central">masih bawaan?</text>
<polygon points="245.0,468.0 715.0,468.0 715.0,510.0 245.0,510.0" fill="#FFFFFF" stroke="#000000" stroke-width="1.6" stroke-linejoin="miter"/>
<text x="480" y="489.0" font-family="Arial, Helvetica, sans-serif" font-size="15" fill="#000000" text-anchor="middle" dominant-baseline="central">Menyimpan lokasi berkas model dari MODEL_PATH</text>
<polygon points="480,538.0 660.0,582.0 480,626.0 300.0,582.0" fill="#FFFFFF" stroke="#000000" stroke-width="1.6" stroke-linejoin="miter"/>
<text x="480" y="571.5" font-family="Arial, Helvetica, sans-serif" font-size="15" fill="#000000" text-anchor="middle" dominant-baseline="central">Pemuatan awal model</text>
<text x="480" y="592.5" font-family="Arial, Helvetica, sans-serif" font-size="15" fill="#000000" text-anchor="middle" dominant-baseline="central">diaktifkan?</text>
<rect x="305.0" y="738.0" width="350" height="42" rx="21.0" ry="21.0" fill="#FFFFFF" stroke="#000000" stroke-width="1.6"/>
<text x="480" y="759.0" font-family="Arial, Helvetica, sans-serif" font-size="15" fill="#000000" text-anchor="middle" dominant-baseline="central">Aplikasi siap menerima permintaan</text>
<polygon points="740.0,368.0 1060.0,368.0 1060.0,424.0 740.0,424.0" fill="#FFFFFF" stroke="#000000" stroke-width="1.6" stroke-linejoin="miter"/>
<text x="900" y="385.5" font-family="Arial, Helvetica, sans-serif" font-size="15" fill="#000000" text-anchor="middle" dominant-baseline="central">Menulis peringatan</text>
<text x="900" y="406.5" font-family="Arial, Helvetica, sans-serif" font-size="15" fill="#000000" text-anchor="middle" dominant-baseline="central">ke log aplikasi</text>
<polygon points="90.0,654.0 410.0,654.0 410.0,710.0 90.0,710.0" fill="#FFFFFF" stroke="#000000" stroke-width="1.6" stroke-linejoin="miter"/>
<text x="250" y="671.5" font-family="Arial, Helvetica, sans-serif" font-size="15" fill="#000000" text-anchor="middle" dominant-baseline="central">Memuat model .keras</text>
<text x="250" y="692.5" font-family="Arial, Helvetica, sans-serif" font-size="15" fill="#000000" text-anchor="middle" dominant-baseline="central">ke memori satu kali</text>
<polygon points="580.0,654.0 980.0,654.0 980.0,710.0 580.0,710.0" fill="#FFFFFF" stroke="#000000" stroke-width="1.6" stroke-linejoin="miter"/>
<text x="780" y="671.5" font-family="Arial, Helvetica, sans-serif" font-size="15" fill="#000000" text-anchor="middle" dominant-baseline="central">Pemuatan ditunda sampai</text>
<text x="780" y="692.5" font-family="Arial, Helvetica, sans-serif" font-size="15" fill="#000000" text-anchor="middle" dominant-baseline="central">permintaan /predict pertama</text>
<line x1="480" y1="86.0" x2="480" y2="114.0" stroke="#000000" stroke-width="1.6"/>
<polygon points="480,114.0 474.6,105.0 485.4,105.0" fill="#000000"/>
<line x1="480" y1="156.0" x2="480" y2="184.0" stroke="#000000" stroke-width="1.6"/>
<polygon points="480,184.0 474.6,175.0 485.4,175.0" fill="#000000"/>
<line x1="480" y1="240.0" x2="480" y2="268.0" stroke="#000000" stroke-width="1.6"/>
<polygon points="480,268.0 474.6,259.0 485.4,259.0" fill="#000000"/>
<line x1="480" y1="324.0" x2="480" y2="352.0" stroke="#000000" stroke-width="1.6"/>
<polygon points="480,352.0 474.6,343.0 485.4,343.0" fill="#000000"/>
<line x1="480" y1="440.0" x2="480" y2="468.0" stroke="#000000" stroke-width="1.6"/>
<polygon points="480,468.0 474.6,459.0 485.4,459.0" fill="#000000"/>
<line x1="480" y1="510.0" x2="480" y2="538.0" stroke="#000000" stroke-width="1.6"/>
<polygon points="480,538.0 474.6,529.0 485.4,529.0" fill="#000000"/>
<line x1="680.0" y1="396.0" x2="740.0" y2="396.0" stroke="#000000" stroke-width="1.6"/>
<polygon points="740.0,396.0 731.0,390.6 731.0,401.4" fill="#000000"/>
<line x1="900" y1="424.0" x2="900" y2="489.0" stroke="#000000" stroke-width="1.6"/>
<line x1="900" y1="489.0" x2="715.0" y2="489.0" stroke="#000000" stroke-width="1.6"/>
<polygon points="715.0,489.0 724.0,483.6 724.0,494.4" fill="#000000"/>
<line x1="300.0" y1="582.0" x2="250" y2="582.0" stroke="#000000" stroke-width="1.6"/>
<line x1="250" y1="582.0" x2="250" y2="654.0" stroke="#000000" stroke-width="1.6"/>
<polygon points="250,654.0 244.6,645.0 255.4,645.0" fill="#000000"/>
<line x1="660.0" y1="582.0" x2="780" y2="582.0" stroke="#000000" stroke-width="1.6"/>
<line x1="780" y1="582.0" x2="780" y2="654.0" stroke="#000000" stroke-width="1.6"/>
<polygon points="780,654.0 774.6,645.0 785.4,645.0" fill="#000000"/>
<line x1="250" y1="710.0" x2="250" y2="724.0" stroke="#000000" stroke-width="1.6"/>
<line x1="250" y1="724.0" x2="480" y2="724.0" stroke="#000000" stroke-width="1.6"/>
<line x1="780" y1="710.0" x2="780" y2="724.0" stroke="#000000" stroke-width="1.6"/>
<line x1="780" y1="724.0" x2="480" y2="724.0" stroke="#000000" stroke-width="1.6"/>
<line x1="480" y1="724.0" x2="480" y2="738.0" stroke="#000000" stroke-width="1.6"/>
<polygon points="480,738.0 474.6,729.0 485.4,729.0" fill="#000000"/>
<text x="700.0" y="383.0" font-family="Arial, Helvetica, sans-serif" font-size="15" fill="#000000" text-anchor="start" dominant-baseline="central">Ya</text>
<text x="496" y="454.0" font-family="Arial, Helvetica, sans-serif" font-size="15" fill="#000000" text-anchor="start" dominant-baseline="central">Tidak</text>
<text x="256.0" y="569.0" font-family="Arial, Helvetica, sans-serif" font-size="15" fill="#000000" text-anchor="start" dominant-baseline="central">Ya</text>
<text x="680.0" y="569.0" font-family="Arial, Helvetica, sans-serif" font-size="15" fill="#000000" text-anchor="start" dominant-baseline="central">Tidak</text>
</svg>
